<svg width="280" height="41" viewBox="0 0 280 41" fill="none" xmlns="http://www.w3.org/2000/svg">
<path d="M33.8857 20.221C36.7126 20.4826 37.1916 22.3691 36.685 24.9029C36.0781 27.9277 35.4689 30.9433 34.8575 33.9497C33.6529 39.9054 29.6968 40.6076 24.0429 40.6284C16.4225 40.6604 8.80438 40.6649 1.18853 40.6421C1.14526 40.6411 1.10276 40.6305 1.06404 40.6109C1.02533 40.5914 0.991362 40.5635 0.964564 40.5295C0.937763 40.4953 0.918795 40.4555 0.909001 40.4131C0.899207 40.3708 0.898832 40.3266 0.907905 40.284L6.97913 11.2359C7.00234 11.1327 7.05964 11.0404 7.14169 10.9742C7.22373 10.9079 7.32567 10.8715 7.43088 10.871H15.3844C15.7723 10.871 15.9274 11.0615 15.8499 11.4425L14.6931 16.9574C14.6338 17.2374 14.7456 17.3797 15.0285 17.3843C18.8433 17.444 22.6375 17.4486 26.4113 17.3981C30.3606 17.3499 30.1417 12.847 30.6891 9.92778C30.7222 9.74884 30.7159 9.56474 30.6704 9.38859C30.6248 9.21241 30.5413 9.04851 30.4256 8.90852C30.31 8.7685 30.165 8.65585 30.0012 8.57855C29.8372 8.50125 29.6586 8.46121 29.4776 8.46126H8.12221C8.06382 8.46154 8.00615 8.44865 7.95338 8.42355C7.90064 8.39842 7.85415 8.36172 7.81738 8.31612C7.78058 8.27055 7.75444 8.21724 7.74087 8.16013C7.72728 8.10302 7.7266 8.0436 7.7389 7.98618L9.16258 1.09423C9.21279 0.850957 9.36109 0.727025 9.60749 0.722435C17.6203 0.699484 25.624 0.701781 33.6187 0.72932C38.2184 0.743091 40.9767 2.00994 39.9431 7.1049C39.0874 11.2841 39.0123 18.6305 33.8581 19.8148C33.811 19.8262 33.7695 19.8541 33.7409 19.8934C33.7123 19.9326 33.6984 19.9808 33.7017 20.0295C33.705 20.0781 33.7252 20.124 33.7589 20.159C33.7926 20.1941 33.8374 20.216 33.8857 20.221ZM26.815 23.092H13.8991C13.5843 23.092 13.3949 23.2481 13.331 23.5602L11.4898 32.3386C11.4796 32.386 11.48 32.435 11.4911 32.4821C11.5021 32.5291 11.5236 32.5732 11.5538 32.6107C11.584 32.6485 11.6222 32.6787 11.6656 32.6997C11.709 32.7205 11.7565 32.7312 11.8047 32.7312H24.9397C25.3049 32.7307 25.6584 32.6034 25.9403 32.3713C26.2223 32.139 26.4154 31.8162 26.4865 31.4573L27.8964 24.414C27.9278 24.2534 27.9235 24.0878 27.8835 23.9291C27.8437 23.7704 27.7693 23.6226 27.6661 23.4962C27.5626 23.3698 27.4327 23.268 27.2857 23.1982C27.1384 23.1283 26.9777 23.092 26.815 23.092Z" fill="#21BECB"/>
<path d="M48.4637 0.714844H56.7937C56.8342 0.715039 56.8742 0.724265 56.9106 0.741855C56.9471 0.759448 56.9795 0.784965 57.0048 0.816575C57.0303 0.848184 57.0486 0.885096 57.0584 0.924651C57.068 0.964206 57.0688 1.00542 57.0607 1.04533L48.8334 40.428C48.8208 40.4899 48.7874 40.5457 48.7388 40.5858C48.6902 40.6258 48.6292 40.6479 48.5664 40.6484H40.2159C40.1754 40.6481 40.1354 40.6388 40.099 40.6213C40.0625 40.6038 40.0302 40.5781 40.0046 40.5464C39.9793 40.515 39.9608 40.478 39.9512 40.4384C39.9416 40.3988 39.9408 40.3578 39.9489 40.3177L48.1967 0.935165C48.2093 0.873189 48.2428 0.81746 48.2913 0.777337C48.3399 0.737214 48.4009 0.715146 48.4637 0.714844Z" fill="#21BECB"/>
<path d="M66.403 32.7241C70.0716 32.7378 73.7518 32.7447 77.4435 32.7447C81.516 32.7378 81.9199 31.0166 82.6728 27.636C83.8638 22.3115 85.0067 16.9687 86.102 11.6075C86.1789 11.2267 86.1711 10.8334 86.0785 10.456C85.9858 10.0786 85.8112 9.72667 85.5667 9.42557C85.3225 9.12446 85.0148 8.88174 84.6658 8.71492C84.3168 8.54812 83.9352 8.46141 83.549 8.46106H62.782C62.7306 8.46129 62.6797 8.44985 62.6332 8.42756C62.5868 8.40529 62.5458 8.37275 62.5137 8.33238C62.4816 8.29203 62.4588 8.24486 62.4471 8.19442C62.4355 8.144 62.4353 8.09156 62.4466 8.04106L63.9046 1.10779C63.9547 0.869109 64.1008 0.749765 64.3427 0.749765C76.6815 0.662555 84.6212 0.66485 88.1623 0.756653C95.7941 0.956318 96.0062 6.59519 94.7537 12.7367C92.8189 22.206 91.5138 28.336 90.8383 31.1267C88.7439 39.802 82.5769 40.5937 74.24 40.6556C68.1804 40.6924 62.1204 40.6787 56.0605 40.6143C55.7684 40.6143 55.6546 40.472 55.7183 40.1874L61.6664 12.0138C61.7302 11.7108 61.9152 11.5593 62.2209 11.5593H69.8527C70.3272 11.5593 70.5142 11.7934 70.414 12.2616L66.136 32.3797C66.0859 32.6047 66.1747 32.7195 66.403 32.7241Z" fill="#21BECB"/>
<path d="M135.856 29.082L148.827 1.05983C148.936 0.830327 149.116 0.715576 149.367 0.715576H157.293C157.338 0.716152 157.383 0.727962 157.422 0.749907C157.462 0.771851 157.495 0.803207 157.519 0.841042C157.543 0.878878 157.557 0.921955 157.559 0.966239C157.562 1.01052 157.553 1.05457 157.533 1.09426L138.724 40.3735C138.685 40.4557 138.624 40.5252 138.548 40.5738C138.472 40.6228 138.383 40.6487 138.293 40.6489H129.107C128.792 40.6489 128.628 40.4907 128.614 40.1739L127.204 12.8126C127.181 12.3582 127.067 12.3353 126.862 12.7438L112.899 40.3116C112.785 40.5366 112.602 40.6489 112.351 40.6489H103.446C103.031 40.6489 102.814 40.4402 102.796 40.0225L101.318 1.16311C101.316 1.105 101.326 1.04711 101.346 0.992883C101.367 0.938657 101.399 0.889199 101.439 0.847451C101.479 0.805702 101.527 0.772513 101.581 0.749859C101.634 0.727204 101.691 0.715548 101.749 0.715576H110.079C110.311 0.715576 110.43 0.834918 110.435 1.0736L111.064 29.0683C111.078 29.61 111.204 29.6374 111.441 29.151L125.192 1.10802C125.249 0.990212 125.338 0.890987 125.448 0.821616C125.559 0.752245 125.685 0.715508 125.815 0.715576H133.987C134.197 0.715576 134.304 0.818854 134.309 1.02541L135.445 28.9996C135.473 29.5961 135.61 29.6237 135.856 29.082Z" fill="white"/>
<path d="M162.476 0.714846H170.642C170.695 0.714666 170.748 0.726496 170.796 0.74947C170.844 0.772447 170.886 0.805979 170.92 0.8476C170.953 0.889222 170.977 0.937871 170.989 0.989964C171.002 1.04206 171.002 1.09627 170.991 1.14861L162.798 40.3659C162.78 40.4463 162.736 40.518 162.673 40.5693C162.609 40.6207 162.53 40.6486 162.449 40.6484H154.283C154.23 40.6484 154.177 40.6367 154.129 40.6136C154.081 40.5906 154.039 40.5571 154.005 40.5155C153.972 40.4739 153.948 40.4252 153.935 40.3732C153.923 40.321 153.922 40.267 153.934 40.2145L162.127 0.997136C162.144 0.916984 162.188 0.845216 162.252 0.793834C162.315 0.742453 162.394 0.714569 162.476 0.714846Z" fill="white"/>
<path d="M177.952 0.769924C177.957 0.733205 177.977 0.714844 178.014 0.714844H206.625C206.675 0.714831 206.725 0.726177 206.771 0.748056C206.817 0.769937 206.858 0.8018 206.89 0.841342C206.922 0.880886 206.945 0.927116 206.957 0.976685C206.969 1.02626 206.97 1.07792 206.96 1.12795L205.618 7.655C205.573 7.88198 205.451 8.08613 205.274 8.23289C205.097 8.37968 204.875 8.46009 204.646 8.46055H176.754C176.476 8.46055 176.367 8.32515 176.426 8.05433L177.952 0.769924Z" fill="white"/>
<path d="M213.243 0.715576H242.046C242.089 0.715602 242.131 0.725317 242.17 0.744005C242.209 0.762693 242.243 0.78988 242.27 0.823566C242.297 0.857252 242.316 0.896582 242.325 0.93866C242.335 0.980738 242.335 1.02449 242.326 1.06671L240.814 8.23407C240.8 8.29846 240.764 8.35608 240.713 8.39739C240.662 8.4387 240.599 8.46125 240.533 8.4613H211.744C211.701 8.46127 211.659 8.45156 211.62 8.43287C211.582 8.41418 211.547 8.38699 211.521 8.35329C211.494 8.31961 211.475 8.28027 211.465 8.2382C211.455 8.19613 211.455 8.15238 211.464 8.11016L212.963 0.942786C212.977 0.878416 213.012 0.820799 213.063 0.77948C213.114 0.73816 213.178 0.715614 213.243 0.715576Z" fill="white"/>
<path d="M279.817 4.17869V5.90686C279.105 9.32644 278.389 12.7437 277.673 16.1587C277.053 19.1239 275.297 21.0035 272.404 21.7976C271.956 21.9169 271.953 22.0409 272.396 22.1694C274.216 22.6995 276.537 23.2572 276.071 25.6809C275.132 30.56 274.135 35.4277 273.082 40.284C273.059 40.3869 273.001 40.4792 272.92 40.5457C272.839 40.6119 272.735 40.6484 272.629 40.6489H264.634C264.576 40.6491 264.521 40.6365 264.467 40.6119C264.417 40.587 264.371 40.5508 264.336 40.5059C264.298 40.461 264.273 40.4082 264.26 40.3522C264.247 40.2959 264.245 40.2373 264.257 40.1807L266.943 27.1541C266.978 26.9771 266.975 26.794 266.932 26.6182C266.889 26.4425 266.808 26.2784 266.695 26.1381C266.583 25.9976 266.439 25.8843 266.277 25.8064C266.115 25.7286 265.938 25.688 265.758 25.6877L252.93 25.6669C252.674 25.6669 252.52 25.7932 252.464 26.0456L249.474 40.2634C249.453 40.3722 249.395 40.4701 249.31 40.5406C249.225 40.6111 249.118 40.6494 249.008 40.6489H240.808C240.598 40.6489 240.514 40.5434 240.555 40.3321L246.606 11.6972C246.625 11.6092 246.673 11.5303 246.743 11.4739C246.813 11.4175 246.9 11.3869 246.989 11.3874H255.195C255.443 11.3874 255.541 11.509 255.491 11.7523L254.025 18.7819C253.975 19.016 254.069 19.1331 254.306 19.1331H266.497C266.963 19.1327 267.413 18.9719 267.775 18.6776C268.14 18.3832 268.39 17.973 268.489 17.5151L270.043 10.3546C270.316 9.09233 269.812 8.46121 268.529 8.46121H247.715C247.418 8.46121 247.299 8.31663 247.359 8.02745L248.817 1.0873C248.862 0.871566 248.995 0.761406 249.213 0.756815C262.301 0.655835 270.901 0.648947 275.011 0.736159C277.554 0.79124 279.154 1.93876 279.817 4.17869Z" fill="white"/>
<path d="M182.58 32.573L199.931 32.5522C200.182 32.5522 200.282 32.6762 200.232 32.924L198.733 40.2499C198.678 40.5159 198.516 40.6491 198.247 40.6491H169.616C169.365 40.6491 169.258 40.5228 169.294 40.2704C169.572 38.338 169.958 36.4423 170.451 34.5833C170.697 33.6379 171.183 32.7931 171.909 32.0496C178.516 25.2471 185.11 18.4356 191.69 11.6147C191.836 11.4633 192.011 11.3875 192.217 11.3875H201.615C201.651 11.3864 201.688 11.3964 201.719 11.4163C201.75 11.4363 201.775 11.4651 201.79 11.4992C201.805 11.5333 201.809 11.5711 201.802 11.6076C201.795 11.6442 201.777 11.6779 201.751 11.7043L182.408 32.1736C182.376 32.2068 182.353 32.2492 182.345 32.2951C182.336 32.341 182.341 32.3886 182.359 32.4315C182.378 32.4746 182.409 32.5111 182.448 32.5362C182.487 32.5614 182.533 32.5743 182.58 32.573Z" fill="white"/>
<path d="M218.991 17.9283H232.749C232.798 17.9282 232.846 17.9392 232.891 17.9604C232.935 17.9815 232.974 18.0124 233.005 18.0507C233.036 18.089 233.057 18.1337 233.069 18.1816C233.081 18.2295 233.081 18.2794 233.071 18.3276L231.846 24.0353C231.83 24.1095 231.789 24.1759 231.731 24.2236C231.672 24.271 231.599 24.2971 231.524 24.2969H217.506C217.431 24.2969 217.358 24.3227 217.299 24.3704C217.24 24.4181 217.2 24.4845 217.184 24.5586L215.535 32.3318C215.525 32.38 215.525 32.43 215.537 32.4779C215.548 32.5258 215.57 32.5705 215.601 32.6088C215.632 32.6471 215.671 32.678 215.715 32.6991C215.759 32.7204 215.807 32.7313 215.856 32.7313H235.261C235.31 32.731 235.358 32.7422 235.403 32.7632C235.447 32.7845 235.486 32.8152 235.517 32.8535C235.547 32.8918 235.57 32.9367 235.581 32.9846C235.592 33.0325 235.593 33.0822 235.583 33.1304L234.091 40.3873C234.075 40.4614 234.035 40.5278 233.976 40.5755C233.917 40.6232 233.844 40.6491 233.769 40.6491H205.042C204.993 40.6491 204.944 40.6381 204.9 40.6168C204.856 40.5958 204.817 40.5649 204.786 40.5266C204.755 40.4883 204.733 40.4436 204.722 40.3957C204.711 40.3478 204.71 40.2978 204.72 40.2496L210.737 11.6491C210.752 11.575 210.793 11.5086 210.851 11.4609C210.91 11.4133 210.983 11.3874 211.058 11.3875H219.566C219.615 11.3874 219.664 11.3984 219.708 11.4195C219.752 11.4407 219.791 11.4716 219.822 11.5099C219.853 11.5481 219.875 11.5929 219.886 11.6408C219.897 11.6887 219.898 11.7386 219.888 11.7868L218.67 17.5289C218.659 17.5771 218.66 17.627 218.672 17.6749C218.683 17.7228 218.705 17.7676 218.736 17.8059C218.766 17.8441 218.805 17.875 218.85 17.8962C218.894 17.9174 218.942 17.9283 218.991 17.9283Z" fill="white"/>
</svg>
